<?xml version="1.0" encoding="UTF-8" standalone="no"?>
<svg
   xmlns:dc="http://purl.org/dc/elements/1.1/"
   xmlns:cc="http://creativecommons.org/ns#"
   xmlns:rdf="http://www.w3.org/1999/02/22-rdf-syntax-ns#"
   xmlns:svg="http://www.w3.org/2000/svg"
   xmlns="http://www.w3.org/2000/svg"
   viewBox="0 0 960 288"
   height="288"
   width="960"
   xml:space="preserve"
   id="svg2"
   version="1.1"><metadata
     id="metadata8"><rdf:RDF><cc:Work
         rdf:about=""><dc:format>image/svg+xml</dc:format><dc:type
           rdf:resource="http://purl.org/dc/dcmitype/StillImage" /></cc:Work></rdf:RDF></metadata><defs
     id="defs6"><clipPath
       id="clipPath18"
       clipPathUnits="userSpaceOnUse"><path
         id="path16"
         d="M 0,216 H 720 V 0 H 0 Z" /></clipPath><clipPath
       id="clipPath48"
       clipPathUnits="userSpaceOnUse"><path
         id="path46"
         d="M 0,216 H 720 V 0 H 0 Z" /></clipPath></defs><g
     transform="matrix(1.3333333,0,0,-1.3333333,0,288)"
     id="g10"><g
       id="g12"><g
         clip-path="url(#clipPath18)"
         id="g14"><g
           transform="translate(288.0796,132.6846)"
           id="g20"><path
             id="path22"
             style="fill:#363636;fill-opacity:1;fill-rule:nonzero;stroke:none"
             d="m 0,0 c -6.108,0 -11.503,-1.19 -16.186,-3.563 -4.682,-2.376 -7.975,-4.581 -9.874,-6.617 v -79.807 h -17.508 v 77.364 c 0,7.193 -1.562,13.911 -4.683,20.156 l 16.084,7.532 c 1.084,-1.901 2.036,-3.801 2.85,-5.7 0.814,-1.902 1.492,-4.005 2.036,-6.311 h 1.221 c 2.851,3.528 6.821,6.413 11.911,8.653 5.089,2.239 9.941,3.358 14.556,3.358 6.241,0 11.84,-0.985 16.797,-2.951 4.952,-1.969 9.126,-4.683 12.52,-8.144 3.391,-3.461 5.971,-7.533 7.737,-12.216 1.762,-4.682 2.646,-9.74 2.646,-15.167 V -89.987 H 22.599 v 66.778 c 0,7.055 -2.138,12.689 -6.413,16.897 C 11.91,-2.106 6.515,0 0,0" /></g><g
           transform="translate(365.0352,103.7744)"
           id="g24"><path
             id="path26"
             style="fill:#363636;fill-opacity:1;fill-rule:nonzero;stroke:none"
             d="m 0,0 h 59.448 v 1.832 c 0,3.392 -0.68,6.719 -2.036,9.977 -1.358,3.257 -3.327,6.139 -5.904,8.652 -2.579,2.51 -5.7,4.546 -9.365,6.108 -3.664,1.558 -7.806,2.341 -12.419,2.341 -4.345,0 -8.347,-0.747 -12.012,-2.24 C 14.048,25.175 10.892,23.174 8.245,20.665 5.599,18.151 3.563,15.27 2.138,12.012 0.712,8.754 0,5.36 0,1.832 Z m 0,-14.251 c 0,-11.945 2.748,-20.633 8.245,-26.06 5.497,-5.43 13.81,-8.143 24.94,-8.143 5.427,0 10.043,1.119 13.844,3.358 3.798,2.241 7.193,5.325 10.18,9.264 l 15.473,-6.312 c -3.939,-6.651 -9.436,-11.877 -16.492,-15.675 -7.058,-3.799 -15.065,-5.702 -24.023,-5.702 -9.095,0 -16.796,1.257 -23.107,3.767 -6.312,2.51 -11.437,6.038 -15.372,10.587 -3.938,4.546 -6.788,10.043 -8.55,16.491 -1.766,6.445 -2.647,13.606 -2.647,21.479 v 2.239 c 0,3.392 0.067,6.684 0.203,9.874 0.134,3.188 0.541,6.343 1.222,9.467 0.677,3.121 1.762,6.21 3.257,9.263 1.493,3.055 3.595,6.073 6.311,9.061 4.614,5.156 10.111,8.989 16.492,11.502 6.378,2.51 12.96,3.767 19.748,3.767 7.599,0 14.353,-1.222 20.257,-3.665 5.905,-2.443 10.857,-5.837 14.863,-10.179 4.001,-4.346 7.023,-9.502 9.059,-15.473 2.036,-5.974 3.054,-12.556 3.054,-19.749 v -9.161 z" /></g><g
           transform="translate(462.96,131.6665)"
           id="g28"><path
             id="path30"
             style="fill:#363636;fill-opacity:1;fill-rule:nonzero;stroke:none"
             d="M 0,0 H -11.604 V 13.641 H 0 v 21.987 l 17.509,4.887 V 13.641 h 18.73 L 31.964,0 H 17.509 v -64.131 c 0,-8.144 4.206,-12.215 12.623,-12.215 h 7.533 v -12.826 c -2.31,-0.815 -4.311,-1.391 -6.006,-1.732 -1.699,-0.337 -3.496,-0.509 -5.395,-0.509 -3.665,0 -7.094,0.681 -10.282,2.037 -3.19,1.355 -5.974,3.257 -8.347,5.7 -2.376,2.443 -4.243,5.325 -5.599,8.653 C 0.678,-71.699 0,-68.07 0,-64.131 Z" /></g><g
           transform="translate(534.0137,134.9238)"
           id="g32"><path
             id="path34"
             style="fill:#363636;fill-opacity:1;fill-rule:nonzero;stroke:none"
             d="m 0,0 c 2.576,4.072 5.599,7.228 9.06,9.467 3.461,2.24 7.634,3.359 12.52,3.359 5.294,0 10.924,-1.495 16.899,-4.478 L 32.37,-7.94 c -4.208,2.169 -8.076,3.257 -11.604,3.257 -3.532,0 -6.617,-0.916 -9.263,-2.748 C 8.855,-9.263 6.684,-11.741 4.987,-14.862 3.289,-17.986 2.035,-21.682 1.221,-25.958 0.407,-30.233 0,-34.813 0,-39.7 v -52.527 h -17.509 v 77.365 c 0,7.193 -1.562,13.911 -4.682,20.155 l 16.083,7.533 C -5.023,10.924 -4.04,8.923 -3.156,6.82 -2.274,4.714 -1.629,2.443 -1.222,0 Z" /></g><path
           id="path36"
           style="fill:#363636;fill-opacity:1;fill-rule:nonzero;stroke:none"
           d="m 581.04,145.307 h 17.509 V 42.697 H 581.04 Z m 8.551,41.329 c 2.714,0 5.019,-0.916 6.922,-2.748 1.899,-1.833 2.85,-4.107 2.85,-6.821 0,-2.716 -0.951,-4.987 -2.85,-6.82 -1.903,-1.832 -4.208,-2.748 -6.922,-2.748 -2.717,0 -5.023,0.916 -6.922,2.748 -1.902,1.833 -2.851,4.104 -2.851,6.82 0,2.714 0.949,4.988 2.851,6.821 1.899,1.832 4.205,2.748 6.922,2.748" /><g
           transform="translate(665.3271,147.75)"
           id="g38"><path
             id="path40"
             style="fill:#363636;fill-opacity:1;fill-rule:nonzero;stroke:none"
             d="M 0,0 C 6.107,0 12.146,-1.088 18.119,-3.257 24.09,-5.43 29.247,-8.688 33.592,-13.03 l -10.79,-10.586 c -2.988,2.576 -6.28,4.647 -9.874,6.209 -3.598,1.559 -8.179,2.342 -13.742,2.342 -4.617,0 -8.892,-0.783 -12.827,-2.342 -3.938,-1.562 -7.33,-3.903 -10.179,-7.024 -2.988,-3.257 -5.227,-7.195 -6.719,-11.808 -1.495,-4.615 -2.239,-9.298 -2.239,-14.048 v -3.257 c 0,-5.975 0.814,-11.707 2.443,-17.204 1.628,-5.496 4.342,-10.077 8.144,-13.742 2.576,-2.444 5.598,-4.377 9.059,-5.802 3.461,-1.426 7.565,-2.138 12.318,-2.138 4.071,0 8.378,0.677 12.927,2.035 4.546,1.356 8.176,3.666 10.893,6.923 l 10.79,-10.383 c -4.48,-4.752 -9.74,-8.214 -15.778,-10.383 -6.041,-2.17 -12.318,-3.258 -18.832,-3.258 -5.431,0 -11.096,0.814 -17,2.443 -5.905,1.629 -11.03,4.205 -15.372,7.737 -3.665,2.984 -6.686,6.413 -9.059,10.281 -2.377,3.868 -4.108,8.379 -5.193,13.539 -0.68,3.258 -1.119,6.515 -1.323,9.772 -0.203,3.258 -0.304,6.515 -0.304,9.773 v 3.868 c 0,3.257 0.101,6.378 0.304,9.365 0.204,2.984 0.678,5.869 1.426,8.653 0.744,2.78 1.832,5.564 3.257,8.347 1.426,2.78 3.427,5.665 6.006,8.653 2.17,2.576 4.75,4.815 7.737,6.718 2.983,1.899 6.174,3.461 9.568,4.682 3.391,1.222 6.887,2.138 10.486,2.749 C -6.688,-0.305 -3.258,0 0,0" /></g></g></g><g
       id="g42"><g
         clip-path="url(#clipPath48)"
         id="g44"><g
           transform="translate(112.1641,196.5171)"
           id="g50"><path
             id="path52"
             style="fill:#fee11b;fill-opacity:1;fill-rule:nonzero;stroke:none"
             d="m 0,0 77.261,-111.109 c 1.888,7.215 2.897,14.783 2.897,22.591 C 80.158,-42.358 44.998,-4.415 0,0" /></g><g
           transform="translate(160.4741,94.0566)"
           id="g54"><path
             id="path56"
             style="fill:#00b0d8;fill-opacity:1;fill-rule:nonzero;stroke:none"
             d="m 0,0 -74.327,106.887 c -28.039,-5.165 -51.743,-22.705 -65.24,-46.749 z" /></g><g
           transform="translate(165.5415,36.8223)"
           id="g58"><path
             id="path60"
             style="fill:#e44145;fill-opacity:1;fill-rule:nonzero;stroke:none"
             d="M 0,0 C 8.321,7.273 15.359,15.979 20.72,25.734 L -120.582,87.01 -44.941,-21.766 c 9.061,1.668 17.666,4.637 25.623,8.692 7.958,-4.055 16.562,-7.024 25.623,-8.692 C 3.287,-14.691 1.2,-7.381 0,0" /></g><g
           transform="translate(14.4243,107.9995)"
           id="g62"><path
             id="path64"
             style="fill:#bfd73b;fill-opacity:1;fill-rule:nonzero;stroke:none"
             d="M 0,0 C 0,-46.156 35.161,-84.103 80.16,-88.517 L 2.9,22.589 C 1.01,15.375 0,7.808 0,0" /></g></g></g></g></svg>