<?xml version="1.0" encoding="UTF-8" standalone="no"?>
<svg
   xmlns:dc="http://purl.org/dc/elements/1.1/"
   xmlns:cc="http://creativecommons.org/ns#"
   xmlns:rdf="http://www.w3.org/1999/02/22-rdf-syntax-ns#"
   xmlns:svg="http://www.w3.org/2000/svg"
   xmlns="http://www.w3.org/2000/svg"
   viewBox="0 0 288 288"
   height="288"
   width="288"
   xml:space="preserve"
   id="svg2"
   version="1.1"><metadata
     id="metadata8"><rdf:RDF><cc:Work
         rdf:about=""><dc:format>image/svg+xml</dc:format><dc:type
           rdf:resource="http://purl.org/dc/dcmitype/StillImage" /></cc:Work></rdf:RDF></metadata><defs
     id="defs6"><clipPath
       id="clipPath18"
       clipPathUnits="userSpaceOnUse"><path
         id="path16"
         d="M 0,216 H 720 V 0 H 0 Z" /></clipPath><clipPath
       id="clipPath48"
       clipPathUnits="userSpaceOnUse"><path
         id="path46"
         d="M 0,216 H 720 V 0 H 0 Z" /></clipPath></defs><g
     transform="matrix(1.3333333,0,0,-1.3333333,0,288)"
     id="g10"><g
       id="g42"><g
         clip-path="url(#clipPath48)"
         id="g44"><g
           transform="translate(112.1641,196.5171)"
           id="g50"><path
             id="path52"
             style="fill:#fee11b;fill-opacity:1;fill-rule:nonzero;stroke:none"
             d="m 0,0 77.261,-111.109 c 1.888,7.215 2.897,14.783 2.897,22.591 C 80.158,-42.358 44.998,-4.415 0,0" /></g><g
           transform="translate(160.4741,94.0566)"
           id="g54"><path
             id="path56"
             style="fill:#00b0d8;fill-opacity:1;fill-rule:nonzero;stroke:none"
             d="m 0,0 -74.327,106.887 c -28.039,-5.165 -51.743,-22.705 -65.24,-46.749 z" /></g><g
           transform="translate(165.5415,36.8223)"
           id="g58"><path
             id="path60"
             style="fill:#e44145;fill-opacity:1;fill-rule:nonzero;stroke:none"
             d="M 0,0 C 8.321,7.273 15.359,15.979 20.72,25.734 L -120.582,87.01 -44.941,-21.766 c 9.061,1.668 17.666,4.637 25.623,8.692 7.958,-4.055 16.562,-7.024 25.623,-8.692 C 3.287,-14.691 1.2,-7.381 0,0" /></g><g
           transform="translate(14.4243,107.9995)"
           id="g62"><path
             id="path64"
             style="fill:#bfd73b;fill-opacity:1;fill-rule:nonzero;stroke:none"
             d="M 0,0 C 0,-46.156 35.161,-84.103 80.16,-88.517 L 2.9,22.589 C 1.01,15.375 0,7.808 0,0" /></g></g></g></g></svg>
